<svg xmlns="http://www.w3.org/2000/svg" viewBox="0 0 107.82 87.96"><defs><style>.cls-1{fill:#0074e4;fill-rule:evenodd;}</style></defs><g id="Layer_2" data-name="Layer 2"><g id="Layer_1-2" data-name="Layer 1"><path class="cls-1" d="M18.33,58.64a11,11,0,0,1,11-11h11v11a11,11,0,0,1-22,0ZM58.64,18.33a11,11,0,0,1,0,22h-11v-11A11,11,0,0,1,58.64,18.33ZM80.63,0A7.36,7.36,0,0,1,88,7.33v73.3A7.36,7.36,0,0,1,80.63,88H7.33A7.35,7.35,0,0,1,0,80.63V7.33A7.35,7.35,0,0,1,7.33,0Zm-22,47.64A18.33,18.33,0,1,0,40.31,29.32h0v11h-11A18.33,18.33,0,1,0,47.64,58.64h0v-11Z"/><path d="M99.36,26.38v6.91c0,2.61,1.16,3.72,2.71,3.72,1.73,0,2.84-1.15,2.84-3.72V26.38h1.52v6.8c0,3.59-1.88,5.06-4.41,5.06s-4.19-1.37-4.19-5V26.38Z"/><path d="M97.85,58.81V47.15h1.64l3.74,5.9a32.28,32.28,0,0,1,2.1,3.79l0,0c-.14-1.56-.17-3-.17-4.8V47.15h1.42V58.81h-1.53l-3.7-5.92A38.47,38.47,0,0,1,99.2,49h0c.09,1.47.12,2.88.12,4.81v5Z"/><path d="M107.82,73.62c0,4-2.44,6.14-5.42,6.14s-5.24-2.39-5.24-5.92c0-3.7,2.3-6.12,5.41-6.12S107.82,70.16,107.82,73.62Zm-9,.19c0,2.49,1.35,4.72,3.72,4.72s3.74-2.19,3.74-4.84c0-2.32-1.22-4.74-3.72-4.74S98.77,71.25,98.77,73.81Z"/><path d="M102.21,5.62h1.5v7.8c0,3.1-1.52,4-3.53,4a4.78,4.78,0,0,1-1.61-.28L98.8,16a3.61,3.61,0,0,0,1.26.22c1.35,0,2.15-.6,2.15-2.89Z"/></g></g></svg>