<svg width="50" height="50" fill="none" xmlns="http://www.w3.org/2000/svg"><path fill-rule="evenodd" clip-rule="evenodd" d="M10.417 33.333a6.255 6.255 0 016.25-6.248l6.25-.002v6.25a6.257 6.257 0 01-6.25 6.25 6.256 6.256 0 01-6.25-6.25zm22.916-22.916a6.256 6.256 0 016.25 6.25 6.257 6.257 0 01-6.25 6.25h-6.25v-6.25a6.257 6.257 0 016.25-6.25zM45.833 0A4.18 4.18 0 0150 4.167v41.666A4.18 4.18 0 0145.833 50H4.167A4.18 4.18 0 010 45.834V4.167A4.18 4.18 0 014.167 0h41.666zm-12.5 27.083c5.743 0 10.417-4.673 10.417-10.416 0-5.744-4.674-10.417-10.417-10.417-5.743 0-10.416 4.673-10.416 10.417v6.25h-6.25c-5.743 0-10.417 4.673-10.417 10.416S10.924 43.75 16.667 43.75c5.743 0 10.416-4.674 10.416-10.417v-6.25h6.25z" fill="#0074E4"/></svg>